Coordinates
version=1
nRows=20
nColumns=34
inDegrees=yes

Units are S.I. units (second, meters, Newtons, ...)
If the header above contains a line with 'inDegrees', this indicates whether rotational values are in degrees (yes) or radians (no).

endheader
time	pelvis_tilt	pelvis_list	pelvis_rotation	pelvis_tx	pelvis_ty	pelvis_tz	hip_flexion_r	hip_adduction_r	hip_rotation_r	knee_angle_r	ankle_angle_r	subtalar_angle_r	mtp_angle_r	hip_flexion_l	hip_adduction_l	hip_rotation_l	knee_angle_l	ankle_angle_l	subtalar_angle_l	mtp_angle_l	lumbar_extension	lumbar_bending	lumbar_rotation	arm_flex_r	arm_add_r	arm_rot_r	elbow_flex_r	pro_sup_r	arm_flex_l	arm_add_l	arm_rot_l	elbow_flex_l	pro_sup_l
      3.41666670	    -28.12476070	      1.36701838	      6.86161545	     -0.04101002	      0.56912611	      0.09307125	    101.07031003	     15.51423334	     -1.82365701	    107.85188122	     32.07178089	    -31.93841315	      0.00000000	    109.36004835	     -7.48441918	     -0.70865229	     39.87350032	     -7.60020496	    -19.92769132	      0.00000000	    -33.96454188	     -3.49566414	      6.16092079	    121.80642872	     -3.28188305	     72.48187556	    122.49933869	     67.30256948	    122.25719924	     -4.62820850	     82.67902777	    118.61767717	     70.59800325
      3.43333330	    -28.07296298	      1.33158095	      7.40817028	     -0.04180515	      0.56028782	      0.09274084	    102.23980214	     15.44487380	     -1.98386960	    109.34322777	     32.10661142	    -32.38810695	      0.00000000	    110.06491304	     -7.21245681	     -0.76373965	     40.31069042	     -7.81859681	    -19.68472114	      0.00000000	    -34.28155018	     -3.29969608	      6.24929009	    122.40429284	     -3.45728014	     72.23240091	    122.13117462	     67.23047802	    122.53255041	     -3.93107405	     82.95591606	    119.03524590	     70.55592876
      3.45000000	    -27.87508916	      1.23189683	      7.85359180	     -0.04645947	      0.55043099	      0.09421016	    103.53465389	     15.54762624	     -2.30630865	    110.74997239	     31.14519335	    -33.93183806	      0.00000000	    110.51458559	     -6.98964186	     -0.75655496	     40.38612909	     -7.92343900	    -19.58277007	      0.00000000	    -34.88712083	     -3.12408378	      6.24660528	    123.60992389	     -3.65498920	     72.20213670	    122.14975119	     66.87604597	    123.70668506	     -3.48364317	     83.56570296	    118.99650515	     70.22228067
      3.46666670	    -27.81576458	      1.06212198	      8.39816404	     -0.04464593	      0.54247764	      0.09070172	    104.64628504	     15.32634967	     -2.49959313	    112.02588911	     31.28520911	    -34.15623518	      0.00000000	    111.07830530	     -6.64510987	     -0.89733056	     40.29608560	     -8.03168851	    -19.51306601	      0.00000000	    -35.14801567	     -2.62539787	      6.04602018	    123.86693945	     -3.72621595	     72.03954135	    122.13682529	     66.79218927	    123.81476692	     -2.99775689	     83.81323904	    119.00298801	     70.14800768
      3.48333330	    -27.95175789	      0.97732116	      8.81849631	     -0.04837051	      0.53468025	      0.09173037	    105.72882244	     15.28786387	     -2.45190629	    112.93656012	     31.52989762	    -34.02541012	      0.00000000	    111.51011251	     -6.37690876	     -0.95658539	     39.67354603	     -8.44225628	    -19.61355242	      0.00000000	    -35.25100538	     -2.34560620	      6.01041419	    124.26415293	     -3.95831247	     72.25119006	    122.32687620	     66.52689509	    124.20474141	     -2.50947492	     85.08581381	    118.74714579	     69.92012438
      3.50000000	    -28.07130362	      0.99926477	      9.12136418	     -0.04925477	      0.52866722	      0.09221545	    106.67439229	     15.38034039	     -2.43813645	    113.75716267	     31.09734883	    -34.71652319	      0.00000000	    111.59599632	     -6.30758543	     -1.33971292	     38.73005797	     -8.70246961	    -19.94258514	      0.00000000	    -35.50758576	     -2.39916700	      5.78498895	    124.37374596	     -4.52862373	     71.57624391	    122.65543936	     65.91923457	    124.87644544	     -1.96284026	     86.13024285	    118.24478988	     69.31039205
      3.51666670	    -28.27447239	      1.12423871	      9.14812553	     -0.05023512	      0.52388481	      0.09083801	    107.29678435	     15.59108916	     -2.25082359	    114.41748453	     31.23597031	    -34.44680390	      0.00000000	    111.80124264	     -6.48979210	     -1.79312622	     37.76311916	     -9.21662029	    -19.76759377	      0.00000000	    -35.66232044	     -2.67505770	      5.60459207	    124.30139307	     -4.87005118	     71.53509223	    122.96015018	     65.35103676	    125.37371839	     -1.65430345	     86.74074329	    116.90024837	     68.60928651
      3.53333330	    -28.40920780	      1.01232326	      9.20422615	     -0.04979064	      0.51444756	      0.08810509	    108.39044521	     15.57675809	     -2.33105538	    115.52634710	     31.02896795	    -34.32761918	      0.00000000	    112.40588280	     -6.64030373	     -1.93298153	     37.36436242	     -9.55597216	    -19.56522580	      0.00000000	    -35.78164415	     -2.35353766	      5.52614233	    124.54982518	     -4.95318361	     71.34949423	    122.98411409	     65.21651348	    125.84255636	     -1.88277627	     86.88844489	    116.14176820	     68.43300905
      3.55000000	    -29.04901976	      1.15051132	      8.94236246	     -0.04803847	      0.50833547	      0.08607623	    109.56170229	     15.84287004	     -2.15503937	    116.39711125	     31.79080222	    -33.97285824	      0.00000000	    113.36950923	     -6.99675321	     -1.92721307	     37.20713965	    -10.55488815	    -20.30987168	      0.00000000	    -35.15962106	     -2.69294841	      5.32612901	    123.83596409	     -5.17441589	     70.97099302	    123.74958230	     64.54835258	    126.23555911	     -1.65654125	     87.52806807	    115.58956981	     67.47299855
      3.56666670	    -29.07163570	      1.43845055	      8.58651681	     -0.04810808	      0.49861746	      0.08422564	    110.59589930	     16.05071910	     -2.30231033	    117.53240567	     32.10355628	    -34.32505451	      0.00000000	    113.80187970	     -7.58937336	     -2.19506336	     37.29515598	    -10.49309984	    -20.50437851	      0.00000000	    -35.17531696	     -2.85151559	      5.55514465	    123.87030719	     -5.07121432	     70.85623039	    123.90147609	     64.45674736	    126.62149688	     -1.84672312	     87.36049864	    115.36205712	     67.29816027
      3.58333330	    -29.16195567	      1.60761668	      8.54953061	     -0.05606581	      0.48792186	      0.08395642	    111.90444801	     16.14570420	     -2.13901687	    118.55064511	     32.10543339	    -34.26605327	      0.00000000	    114.53657376	     -7.92742648	     -2.77402721	     37.27347074	    -10.80598204	    -20.57249890	      0.00000000	    -35.14987606	     -2.78702047	      5.93083003	    124.33919872	     -5.06405546	     70.57151617	    123.70553277	     64.34648664	    127.22970624	     -1.30635176	     87.55191337	    115.61583252	     67.15039251
      3.60000000	    -29.45465911	      1.85483147	      8.54429533	     -0.05433493	      0.48194729	      0.08474111	    113.14083374	     16.52118433	     -1.97800087	    119.56738201	     32.07570406	    -33.86129660	      0.00000000	    115.07879938	     -8.34382848	     -3.33168493	     36.74992715	    -11.29575822	    -20.38001374	      0.00000000	    -35.04436536	     -2.99176884	      6.04402128	    124.60816635	     -5.25667606	     70.87862581	    124.20377045	     64.07636425	    127.94542399	     -0.72149543	     88.51706092	    116.20876032	     66.67146124
      3.61666670	    -29.41354458	      1.86986408	      8.91936466	     -0.05659782	      0.47233763	      0.08867812	    114.27914891	     16.76044378	     -2.21156734	    120.70975000	     31.90713798	    -33.86373636	      0.00000000	    115.46028194	     -8.46551130	     -3.74439595	     36.27757856	    -11.71319302	    -19.76416309	      0.00000000	    -35.28520899	     -2.76407868	      6.31384431	    125.03083146	     -5.31664447	     70.77487443	    123.98839106	     63.97029451	    128.62179887	     -0.48639701	     88.62502710	    116.39591719	     66.52758037
      3.63333330	    -29.03231063	      1.95025128	      9.17844997	     -0.06273495	      0.46351045	      0.09329019	    115.25201784	     17.38488054	     -2.48117121	    121.59400420	     31.11861684	    -34.54735379	      0.00000000	    115.60380954	     -8.72859150	     -4.17001499	     35.97413211	    -11.86892379	    -18.67691833	      0.00000000	    -36.20137922	     -2.90732146	      6.16687753	    126.15789670	     -5.26190209	     70.39974650	    123.64461019	     63.47191733	    130.57579333	     -0.55858700	     89.20296357	    116.30662125	     65.88093797
      3.65000000	    -28.49513292	      2.07444952	      9.41757023	     -0.06282259	      0.46098961	      0.09360285	    115.42491622	     17.85030216	     -2.49772598	    122.20850151	     30.75013932	    -34.54318454	      0.00000000	    114.83016288	     -8.73625279	     -4.61558411	     35.05045289	    -12.51916249	    -18.28879723	      0.00000000	    -37.10128601	     -2.98056652	      5.92355472	    126.24498944	     -5.07374831	     70.11215318	    123.29265730	     63.15675252	    131.20618762	     -0.71205624	     89.42165805	    115.70780345	     65.41819459
      3.66666670	    -27.32112895	      2.21435478	     10.02632000	     -0.07590313	      0.45328241	      0.09828595	    115.52178526	     18.03546709	     -2.33361433	    123.04447401	     29.93966091	    -35.00000000	      0.00000000	    113.80822672	     -8.47189989	     -5.27108505	     35.00191807	    -12.79893518	    -17.25793247	      0.00000000	    -38.93113870	     -2.71235203	      5.56064785	    127.11320418	     -4.82787689	     69.14975619	    121.61197356	     62.56370635	    132.60485308	     -0.82334455	     89.77724798	    114.82760717	     64.63881036
      3.68333330	    -26.25883001	      2.30976560	     10.96282543	     -0.07173097	      0.44786260	      0.09836537	    115.48815127	     17.74728706	     -2.12991459	    123.91491723	     30.18967150	    -35.00000000	      0.00000000	    112.91614666	     -7.92176319	     -6.03544810	     34.90279451	    -13.33423833	    -17.08259470	      0.00000000	    -40.41360863	     -2.20385145	      4.92217366	    127.46068576	     -4.65012798	     68.31827570	    120.58177710	     62.13912584	    133.21311591	     -0.67496015	     89.81627085	    114.04091368	     63.99845313
      3.70000000	    -25.64803175	      2.31596824	     11.72952085	     -0.07036928	      0.44069175	      0.09888224	    115.79149457	     17.50841320	     -2.44153354	    124.80788143	     30.59806213	    -35.00000000	      0.00000000	    112.50263599	     -7.45292433	     -6.62177545	     34.91597306	    -13.38454619	    -16.86642412	      0.00000000	    -41.13917893	     -1.73564185	      4.64856962	    127.35883948	     -4.49232786	     67.70124316	    120.06509200	     61.92144276	    133.71171903	     -0.62749928	     89.71237067	    113.28967986	     63.64855115
      3.71666670	    -24.86341824	      2.49859430	     12.15887459	     -0.07385846	      0.43444713	      0.09909338	    115.84184347	     17.41065422	     -2.64155970	    125.68000200	     30.76409083	    -35.00000000	      0.00000000	    112.14247444	     -7.32033677	     -7.04687920	     35.26146037	    -13.28877366	    -16.86672547	      0.00000000	    -42.18187362	     -1.65430736	      4.10527211	    127.28108408	     -4.23972981	     66.48418337	    119.19484263	     61.52309390	    134.46906893	     -0.48195642	     89.33856345	    112.14848685	     62.98736107
      3.73333330	    -25.00200063	      2.56434371	     11.74611292	     -0.06598903	      0.42341256	      0.09167234	    117.27594987	     17.64978375	     -3.18961052	    127.00216368	     31.89341787	    -35.00000000	      0.00000000	    113.05655129	     -7.72434321	     -6.76103853	     35.46925025	    -13.14602251	    -16.98273472	      0.00000000	    -41.50859395	     -1.91952456	      4.10363944	    126.10137164	     -4.18809932	     66.04857053	    120.31735692	     61.27705021	    134.26761073	     -0.35348478	     89.60562601	    111.89901883	     62.37473774
